<svg version="1.2" xmlns="http://www.w3.org/2000/svg" viewBox="0 0 1335 1335" width="1335" height="1335">
	<title>Neues Projekt</title>
	<style>
		.s0 { fill: #ffffff } 
	</style>
	<g id="Layer">
		<g id="svg_1">
			<g id="svg_21">
				<g id="svg_20">
					<path id="svg_19" class="s0" d="m710.1 883.1c-16 0-31.8 0-47.8 0-34.9 0-69.7 0-104.5 0-34.4 0-68.7 0-103.1 0-11.1 0-22.1 0-33.2 0-2.9 0-5.8 0-8.7 0-0.7 0-1.4 0-2.1 0q-0.2 0-0.4 0c-0.4 0-1-0.5-1 0 0-0.4 4.7 1.1 1.9 0.2-0.6-0.1-1.2-0.3-1.8-0.5q1.3 0.5 2.6 1.1c-0.3-0.3-2-1.3-2.3-1.4 0.4 0.1 3.1 3.1 1.4 1.1-3.1-3.5 2.2 3.2-0.5-0.7-1.4-2.2 0.8 1.3 0.7 1.7 0.2-0.8-0.8-1.9-0.7-2.7 0 0 0.3 4.9 0.5 1.8 0-0.3 0-0.5 0-0.7q0-2.5 0-4.9 0-10.7 0-21.4c0-26.5 0-53 0-79.5 0-35.7 0-71.4 0-107.2q0-55.3 0-110.6 0-44.8 0-89.5c0-14.6-0.1-29.1 0-43.6 0-0.3 0-0.6 0-1-0.2-3.4-1.1 3.2-0.3 1.4 0.2-0.5 0.6-1.8 0.5-2.3 0.2 2.6-1.6 3.3-0.7 1.7 0.2-0.3 0.3-0.5 0.5-0.8 1-1.5 0.6-1-1.2 1.4 0.2-0.2 1.7-1.6 1.9-1.9-1.4 2.2-3.1 2.2-1 0.9 2.2-1.3 1 0.7-1.4 0.5 0.3 0 1.5-0.4 1.8-0.5 3.3-1.1-4.4 0-0.9 0.2 0.1 0 0.1 0 0.1 0q0.6 0 1.1 0 7.2 0 14.4 0c22.5 0 45.1 0 67.6 0 33.8 0 67.6 0 101.4 0 37.5 0 75.1 0 112.7 0 33.8 0 67.6 0 101.4 0 22.8 0 45.5 0 68.3 0 5 0 10 0 14.9 0 0.4 0 0.8 0 1.2 0q0.1 0 0.2 0c3.1-0.2-1.8-0.4-1.8-0.4 0.8-0.2 1.9 0.8 2.7 0.7q-1.3-0.6-2.6-1.1c0.6 0.3 1.1 0.6 1.7 0.9 2.3 1-1.2-0.8-1.5-1.2 0.2 0.3 1.6 1.7 1.9 1.9-0.4-0.3-2.2-3.7-1.2-1.5 0.3 0.5 1.8 3.3 0.3 0.4-1.3-2.8-0.3-0.1 0 0.5 0.9 2.8-0.6-1.8-0.3-1.9-0.2 0 0.1 0.7 0 1 0 0.5 0 1 0 1.5 0 21.3 0 42.8 0 64.2 0 36.4 0 72.9 0 109.3 0 28.8 0 57.7 0 86.5q0 6.7 0 13.4c0 9.2 8.2 18 17.7 17.6 9.5-0.4 17.6-7.8 17.6-17.6q0-26.1 0-52.1c0-36.1 0-72.1 0-108.2q0-47.2 0-94.4c0-6.5 0.1-13.1 0-19.6-0.1-20-16-35.1-35.8-35.2-14.6-0.1-29.1 0-43.6 0q-44.2 0-88.5 0c-37.1 0-74.3 0-111.5 0-36.7 0-73.4 0-110.1 0q-43.7 0-87.3 0c-13.4 0-26.9-0.1-40.3 0-19.8 0.1-35.2 15.7-35.3 35.5q0 7.1 0 14.2 0 35 0 70.1 0 52.2 0 104.4c0 37.7 0 75.5 0 113.2 0 32.2 0 64.5 0 96.6 0 18.3 0 36.4 0 54.6 0 1.4 0 2.7 0 4.1 0.2 12.7 6.8 25.1 18.5 31 8.7 4.4 17.2 4 26.5 4 26.9 0 54 0 80.9 0 37.4 0 74.8 0 112.2 0 27.9 0 55.8 0 83.7 0 4.2 0 8.4 0 12.6 0 9.2 0 18.1-8.1 17.6-17.6-0.4-9.5-7.7-17.6-17.6-17.6z"/>
				</g>
			</g>
			<g id="svg_24">
				<g id="svg_23">
					<path id="svg_22" class="s0" d="m710.1 883.1c-17.2 0-34.4 0-51.5 0-37 0-73.8 0-110.7 0q-51.9 0-103.8 0c-9.5 0-19.1 0-28.7 0-1.6 0-3.3-0.1-4.9 0-3.5 0.1 4 1.2 0.8 0.2-0.3-0.1-1.4-0.5-1.7-0.5q1.3 0.5 2.5 1.1c-0.5-0.3-1-0.6-1.6-0.9-1.6-0.8-0.4-1.5 1.4 1.2-0.4-0.4-0.9-0.8-1.3-1.2q-1.8-2.1 1.1 1.4c-0.1-0.3-0.8-1.2-0.9-1.5-1.8-2.8 0.9 4.1 0.4 0.8-0.1-0.5-0.2-1.4-0.4-1.8 0.9 2.1 0.3 4.1 0.4 1.8 0-0.3 0-0.5 0-0.9-0.2-30.1 0-60.2 0-90.3 0-1 0-1.9 0-2.9-1.7 4.2-3.5 8.4-5.1 12.5q36.6-36.3 73.2-72.6c3.5-3.4 6.9-6.8 10.3-10.2q-12.5 0-25 0c10.8 10.8 21.6 21.4 32.4 32.1 17.1 17.1 34.3 34.1 51.4 51.2 4 3.8 7.9 7.8 11.8 11.7 6.8 6.7 18.2 6.7 25 0 7.8-7.9 15.8-15.7 23.6-23.5 18.9-18.8 37.8-37.7 56.7-56.4 22.8-22.8 45.7-45.6 68.6-68.3 19.8-19.7 39.5-39.3 59.3-59 9.6-9.5 19.5-18.8 28.8-28.7q0.2-0.2 0.4-0.4-12.5 0-25 0c11.4 11.3 22.7 22.5 34.2 33.8 18.1 17.9 36.1 35.7 54.1 53.6 4.2 4.1 8.4 8.3 12.5 12.3-1.7-4.1-3.4-8.3-5.1-12.4 0 11.6 0 23.2 0 34.8 0 9.3 8.1 18.1 17.6 17.7 9.5-0.4 17.7-7.8 17.7-17.7 0-11.6 0.4-23.2 0-34.8-0.3-7.2-4-11.3-8.6-15.8-3.5-3.4-7-7-10.6-10.4-22.6-22.5-45.3-44.9-68-67.4q-9.4-9.3-18.9-18.6c-6.7-6.7-18.1-6.8-25 0-7.8 7.8-15.7 15.7-23.5 23.5-18.9 18.8-37.8 37.6-56.7 56.4-22.9 22.7-45.8 45.5-68.6 68.3-19.8 19.7-39.6 39.3-59.3 59-9.6 9.5-19.6 18.7-28.8 28.6q-0.2 0.2-0.4 0.5 12.4 0 24.9 0c-10.8-10.8-21.5-21.4-32.3-32.2-17.1-17-34.3-34.1-51.4-51.1-4-3.9-7.9-7.8-11.8-11.7-6.8-6.7-18.2-6.7-25 0-11.4 11.2-22.8 22.5-34.1 33.8q-23 22.7-46 45.5c-1.1 1.1-2.3 2.2-3.4 3.4-4.3 4.6-5.3 9.8-5.3 15.4q0 13.8 0 27.6 0 31.1 0 62.2c0 19.7 14.8 35.7 34.8 36.1 2.5 0.1 5 0 7.5 0q22.7 0 45.3 0c23.5 0 46.8 0 70.3 0q38.3 0 76.6 0c21.5 0 42.9 0 64.4 0 11.3 0 22.7 0 34 0 0.5 0 1 0 1.5 0 9.3 0 18.1-8.1 17.7-17.7-0.6-9.5-7.9-17.6-17.8-17.6z"/>
				</g>
			</g>
			<g id="svg_27">
				<g id="svg_26">
					<path id="svg_25" class="s0" d="m560.1 531.2c0 1 0 2-0.1 3 0 0.5-0.1 1-0.1 1.5-0.2 2.2 0.7-4.1 0.2-1.9-0.4 2.1-0.9 4-1.5 6.1-0.3 0.9-0.7 1.8-0.9 2.7 1.4-4.9 0.8-1.8 0.1-0.4-1 1.9-2.1 3.5-3.2 5.2-1.4 2.4 2.9-3.2 0.3-0.2-0.7 0.7-1.2 1.4-1.9 2-1.4 1.4-3 2.6-4.4 4 0.1-0.2 3.6-2.5 1.3-1.1-0.4 0.2-0.8 0.5-1.1 0.8-0.8 0.5-1.6 1-2.4 1.4-0.9 0.4-1.6 0.8-2.5 1.3-3.4 1.7 3.6-1.3-0.1 0-1.8 0.6-3.6 1.1-5.5 1.5-0.7 0.2-4.2 0.7-1 0.3 3.2-0.4-1.1 0-2.1 0.1-1.9 0-3.9-0.1-5.9-0.2-1.9-0.1 2.5 0.3 2.3 0.3-0.5-0.1-1-0.1-1.4-0.3-1.3-0.2-2.5-0.5-3.8-0.8-0.9-0.3-1.8-0.6-2.7-0.9-0.4-0.1-0.8-0.3-1.3-0.5-0.2 0 3.6 1.8 2 0.9-1.8-1.1-3.8-2-5.7-3.1-0.6-0.4-3.2-2.4-0.8-0.5 2.4 1.9-0.2-0.2-0.7-0.7-1.7-1.4-3.1-3-4.6-4.5-0.2-0.4-0.5-0.8-0.8-1.1-0.1-0.1 2.2 3.2 1.3 1.7-0.5-0.9-1.2-1.8-1.7-2.7-0.5-0.8-0.9-1.6-1.4-2.5-0.3-0.7-1.9-4.1-0.7-1.2 1.2 2.8 0-0.3-0.3-1-0.3-1.1-0.6-2.1-0.9-3.2-0.2-0.9-0.4-1.9-0.5-2.8-0.6-2.8 0.3 4.2 0 0.3-0.1-2.1-0.2-4.3 0-6.4 0-0.5 0-1 0.1-1.5 0.1-1.9-0.3 2.5-0.3 2.3 0.2-1.1 0.4-2.2 0.6-3.3 0.5-2 1.3-3.9 1.8-5.9 0.1-0.1-1.7 3.7-0.8 2.1 0.2-0.5 0.4-0.9 0.5-1.3 0.6-1.1 1.2-2.2 1.8-3.3 0.5-0.7 1.1-1.5 1.5-2.3 1.5-2.5-2.5 2.8-0.5 0.6 1.4-1.6 2.9-3.2 4.4-4.6 0.7-0.7 1.5-1.1 2.2-1.8 0-0.1-3.3 2.2-1.7 1.4 0.4-0.3 0.7-0.6 1.1-0.8 1.8-1.2 3.7-2.2 5.6-3.2 2.7-1.4-3.6 1.3-0.7 0.4 0.9-0.3 1.7-0.7 2.6-1 1.1-0.2 2.2-0.5 3.3-0.8 0.5-0.1 0.9-0.2 1.4-0.3 2.4-0.5-1.3 0.2-1.8 0.2 1.9 0 3.9-0.3 5.9-0.3 1.1 0 2.3 0.2 3.5 0.3 1.9 0-2.5-0.4-2.3-0.4 0.6 0.1 1.3 0.2 1.9 0.4 2.3 0.4 4.6 1.2 6.9 1.9 1.7 0.6-2.2-1-2.1-0.9 0.5 0.4 1.1 0.5 1.7 0.8 1 0.5 1.9 1 2.9 1.5 1.1 0.7 2 1.5 3.1 2.1 1.6 0.8-1.8-1.5-1.7-1.4 0.4 0.5 1 0.8 1.4 1.2 1.6 1.5 3.2 3 4.6 4.6 0.4 0.5 0.8 1 1.2 1.4-0.3-0.3-2.3-3.3-1.1-1.3 0.5 0.9 1.2 1.8 1.7 2.8 0.6 0.9 1.1 1.9 1.6 2.9 0.3 0.4 0.5 1.2 0.8 1.7-0.3-0.5-1.5-3.9-0.7-1.7 0.7 2.1 1.3 4.3 1.8 6.5 0.1 0.6 0.1 1.2 0.4 1.9-0.2-0.5-0.5-4.3-0.3-1.8 0.1 1.1 0.2 2.5 0.2 3.8 0.1 9.3 8 18.1 17.6 17.7 9.5-0.5 17.8-7.8 17.7-17.7-0.3-26.6-17-49.2-41.8-58.3-22.9-8.4-51-0.6-66.5 18.2-16.7 20.2-20.1 49-6.2 71.8 13.7 22.7 40 33.5 65.8 28.6 28.3-5.4 48.4-32.1 48.7-60.2 0-9.3-8.2-18.1-17.7-17.7-9.6 0.4-17.5 7.6-17.6 17.6z"/>
				</g>
			</g>
			<g id="svg_30">
				<g id="svg_29">
					<path id="svg_28" class="s0" d="m829.7 738.5q0 31.6 0 63.3c0 33.5 0 67 0 100.5 0 7.7 0 15.4 0 23.2 0 9.2 8.2 18 17.7 17.6 9.5-0.4 17.6-7.8 17.6-17.6q0-31.7 0-63.4c0-33.5 0-67 0-100.5 0-7.7 0-15.4 0-23.1 0-9.3-8.1-18.1-17.6-17.7-9.6 0.4-17.7 7.8-17.7 17.7z"/>
				</g>
			</g>
			<g id="svg_33">
				<g id="svg_32">
					<path id="svg_31" class="s0" d="m753.9 849.6q31.7 0 63.3 0c33.6 0 67 0 100.6 0 7.7 0 15.4 0 23.1 0 9.3 0 18.1-8.2 17.7-17.7-0.5-9.5-7.8-17.6-17.7-17.6q-31.6 0-63.3 0c-33.5 0-67 0-100.5 0-7.7 0-15.4 0-23.2 0-9.2 0-18 8.1-17.6 17.6 0.4 9.6 7.7 17.7 17.6 17.7z"/>
				</g>
			</g>
		</g>
	</g>
</svg>