<svg width="24.000000000000004" height="24.000000000000004" xmlns="http://www.w3.org/2000/svg" fill="none" stroke-width="1.5">
 <g>
  <title>Layer 1</title>
  <path d="m16.1313,6.41379l3,0m3,0l-3,0m0,0l0,-3m0,3l0,3" stroke="white" stroke-linecap="round" stroke-linejoin="round" id="svg_1"/>
  <path d="m7.59549,15.91369l0,-10.99998l8,-0.99992" stroke="white" stroke-linecap="round" stroke-linejoin="round" id="svg_2"/>
  <path d="m16.59549,13.91379l0,-4" stroke="white" stroke-linecap="round" stroke-linejoin="round" id="svg_3"/>
  <path d="m13.59549,18.91379l1,0c1.1046,0 2,-0.8954 2,-2l0,-3l-3,0c-1.1046,0 -2,0.8954 -2,2l0,1c0,1.1046 0.8954,2 2,2z" stroke="white" stroke-linecap="round" stroke-linejoin="round" id="svg_4"/>
  <path d="m4.59549,20.91379l1,0c1.10457,0 2,-0.8954 2,-2l0,-3l-3,0c-1.10457,0 -2,0.8954 -2,2l0,1c0,1.1046 0.89543,2 2,2z" stroke="white" stroke-linecap="round" stroke-linejoin="round" id="svg_5"/>
 </g>

</svg>